<svg width="160" height="24" viewBox="0 0 160 24" fill="none" xmlns="http://www.w3.org/2000/svg">
<path d="M20.2357 23H0.116732L1.04673 17.699L13.8187 5.888H3.55773L4.48773 0.679999H23.7387L22.8087 5.857L9.88173 17.792H21.1657L20.2357 23ZM33.9278 10.631C31.7268 10.631 30.6728 12.894 30.3628 14.723C29.8358 17.792 30.7348 19.125 32.3778 19.125C34.1138 19.125 35.4158 17.792 35.9428 14.723C36.3768 12.336 35.6328 10.538 33.9278 10.631ZM23.8528 15.064C24.8448 9.422 29.1228 6.291 34.6098 6.291C40.3448 6.291 43.2898 9.67 42.3908 14.723C41.3368 20.675 36.8108 23.465 31.6028 23.465C26.3948 23.465 22.8918 20.613 23.8528 15.064ZM54.6046 10.631C52.4036 10.631 51.3496 12.894 51.0396 14.723C50.5126 17.792 51.4116 19.125 53.0546 19.125C54.7906 19.125 56.0926 17.792 56.6196 14.723C57.0536 12.336 56.3096 10.538 54.6046 10.631ZM44.5296 15.064C45.5216 9.422 49.7996 6.291 55.2866 6.291C61.0216 6.291 63.9666 9.67 63.0676 14.723C62.0136 20.675 57.4876 23.465 52.2796 23.465C47.0716 23.465 43.5686 20.613 44.5296 15.064ZM74.9403 5.888L74.1653 10.321H77.0483C79.3113 10.321 80.6133 9.763 80.8923 8.213C81.1713 6.632 80.0553 5.888 78.3503 5.888H74.9403ZM75.5293 15.219H73.2973L71.9333 23H64.6173L68.5543 0.679999H79.0943C86.5343 0.679999 88.6113 2.695 87.8673 7.035C87.4023 9.608 85.8833 11.778 83.1553 12.491C85.3563 13.359 86.6893 13.917 85.8833 18.412C85.3873 21.326 85.1083 22.318 85.9763 22.318L85.8523 23H78.4433C78.3503 22.504 78.4123 21.078 78.7533 19.094C79.2803 16.18 78.9393 15.219 75.5293 15.219ZM106.508 23H99.8432V21.264C97.7042 22.969 95.7512 23.465 93.3332 23.465C90.2642 23.465 87.8152 21.946 88.4042 18.567C89.7062 11.189 100.68 14.537 101.207 11.499C101.424 10.321 100.029 10.166 99.3472 10.166C98.4482 10.166 97.2082 10.352 96.8052 11.747H90.6052C91.1942 8.306 94.0152 6.291 100.432 6.291C108.12 6.291 108.089 9.143 107.407 13.018L106.074 20.613C105.888 21.543 105.857 22.008 106.57 22.69L106.508 23ZM96.8982 19.807C99.1612 19.807 100.215 18.04 100.463 15.808C98.1692 16.831 95.4722 16.335 95.1002 18.443C94.9452 19.249 95.6272 19.807 96.8982 19.807ZM108.926 23L111.778 6.756H117.699L117.265 9.174C118.319 7.934 120.613 6.291 122.938 6.291C125.852 6.291 127.247 7.531 127.712 9.267C129.448 7.314 131.463 6.291 133.85 6.291C138.593 6.291 139.616 8.957 138.841 13.39L137.136 23H130.688L132.145 14.723C132.579 12.336 132.269 11.375 130.564 11.375C128.673 11.375 128.022 13.018 127.681 14.971L126.255 23H119.807L121.264 14.723C121.698 12.336 121.388 11.375 119.683 11.375C117.792 11.375 117.141 13.018 116.8 14.971L115.374 23H108.926ZM158.185 23H151.52V21.264C149.381 22.969 147.428 23.465 145.01 23.465C141.941 23.465 139.492 21.946 140.081 18.567C141.383 11.189 152.357 14.537 152.884 11.499C153.101 10.321 151.706 10.166 151.024 10.166C150.125 10.166 148.885 10.352 148.482 11.747H142.282C142.871 8.306 145.692 6.291 152.109 6.291C159.797 6.291 159.766 9.143 159.084 13.018L157.751 20.613C157.565 21.543 157.534 22.008 158.247 22.69L158.185 23ZM148.575 19.807C150.838 19.807 151.892 18.04 152.14 15.808C149.846 16.831 147.149 16.335 146.777 18.443C146.622 19.249 147.304 19.807 148.575 19.807Z" fill="white"/>
</svg>
