<svg width="118" height="118" viewBox="0 0 118 118" fill="none" xmlns="http://www.w3.org/2000/svg">
<path d="M21.2756 94.6492C26.8006 90.6745 32.6631 87.5312 38.863 85.2194C45.0629 82.9065 51.7752 81.75 59 81.75C66.2247 81.75 72.9371 82.9065 79.137 85.2194C85.3369 87.5312 91.1994 90.6745 96.7244 94.6492C101.017 90.2076 104.469 84.9621 107.081 78.9128C109.694 72.8623 111 66.2247 111 59C111 44.5917 105.935 32.3229 95.8063 22.1938C85.6771 12.0646 73.4083 7 59 7C44.5917 7 32.3229 12.0646 22.1938 22.1938C12.0646 32.3229 7 44.5917 7 59C7 66.2247 8.3065 72.8623 10.9195 78.9128C13.5314 84.9621 16.9835 90.2076 21.2756 94.6492ZM59.0033 62.25C53.5259 62.25 48.906 60.3699 45.1436 56.6096C41.3812 52.8494 39.5 48.2306 39.5 42.7533C39.5 37.2759 41.3801 32.656 45.1404 28.8936C48.9006 25.1312 53.5194 23.25 58.9967 23.25C64.4741 23.25 69.094 25.1301 72.8564 28.8904C76.6188 32.6506 78.5 37.2694 78.5 42.7467C78.5 48.2241 76.6199 52.844 72.8596 56.6064C69.0994 60.3688 64.4806 62.25 59.0033 62.25ZM59 117.5C50.8414 117.5 43.2039 115.981 36.0875 112.944C28.9711 109.906 22.7793 105.754 17.5121 100.488C12.246 95.2207 8.09417 89.0289 5.0565 81.9125C2.01883 74.7961 0.5 67.1586 0.5 59C0.5 50.8414 2.01883 43.2039 5.0565 36.0875C8.09417 28.9711 12.246 22.7793 17.5121 17.5121C22.7793 12.246 28.9711 8.09416 36.0875 5.0565C43.2039 2.01883 50.8414 0.5 59 0.5C67.1586 0.5 74.7961 2.01883 81.9125 5.0565C89.0289 8.09416 95.2207 12.246 100.488 17.5121C105.754 22.7793 109.906 28.9711 112.944 36.0875C115.981 43.2039 117.5 50.8414 117.5 59C117.5 67.1586 115.981 74.7961 112.944 81.9125C109.906 89.0289 105.754 95.2207 100.488 100.488C95.2207 105.754 89.0289 109.906 81.9125 112.944C74.7961 115.981 67.1586 117.5 59 117.5ZM59 111C64.9919 111 70.888 109.952 76.6881 107.856C82.4872 105.76 87.4993 102.892 91.7243 99.2496C87.4993 95.8577 82.6118 93.1765 77.0619 91.2059C71.512 89.2353 65.4913 88.25 59 88.25C52.5087 88.25 46.4669 89.2147 40.8747 91.1441C35.2837 93.0735 30.4173 95.7754 26.2757 99.2496C30.5007 102.892 35.5128 105.76 41.3119 107.856C47.112 109.952 53.0081 111 59 111ZM59 55.75C62.6497 55.75 65.7291 54.496 68.2381 51.9881C70.746 49.4791 72 46.3997 72 42.75C72 39.1003 70.746 36.0209 68.2381 33.5119C65.7291 31.004 62.6497 29.75 59 29.75C55.3503 29.75 52.2709 31.004 49.7619 33.5119C47.254 36.0209 46 39.1003 46 42.75C46 46.3997 47.254 49.4791 49.7619 51.9881C52.2709 54.496 55.3503 55.75 59 55.75Z" fill="white"/>
</svg>
