<svg width="20" height="20" viewBox="0 0 20 20" fill="#a2a2a2" xmlns="http://www.w3.org/2000/svg">
    <path d="M13.1053 3.048C12.8198 3.048 12.5786 2.94942 12.3818 2.75225C12.1849 2.55508 12.0865 2.31375 12.0865 2.02825C12.0865 1.74275 12.1851 1.50158 12.3822 1.30475C12.5794 1.10808 12.8208 1.00975 13.1062 1.00975C13.3917 1.00975 13.6329 1.10833 13.8298 1.3055C14.0266 1.5025 14.125 1.74383 14.125 2.0295C14.125 2.315 14.0264 2.55617 13.8292 2.753C13.6321 2.94967 13.3907 3.048 13.1053 3.048ZM13.0763 18.9902C12.7908 18.9902 12.5497 18.8917 12.353 18.6945C12.1562 18.4975 12.0577 18.2562 12.0577 17.9705C12.0577 17.685 12.1563 17.4438 12.3535 17.247C12.5507 17.0503 12.792 16.952 13.0775 16.952C13.363 16.952 13.6042 17.0506 13.801 17.2478C13.9977 17.4449 14.096 17.6863 14.096 17.9718C14.096 18.2572 13.9975 18.4984 13.8005 18.6952C13.6033 18.8919 13.3619 18.9902 13.0763 18.9902ZM17.0763 6.43275C16.7908 6.43275 16.5497 6.33417 16.353 6.137C16.1562 5.93983 16.0577 5.6985 16.0577 5.413C16.0577 5.1275 16.1563 4.88633 16.3535 4.6895C16.5507 4.49267 16.792 4.39425 17.0775 4.39425C17.363 4.39425 17.6042 4.49283 17.801 4.69C17.9977 4.88717 18.096 5.1285 18.096 5.414C18.096 5.6995 17.9975 5.94067 17.8005 6.1375C17.6033 6.33433 17.3619 6.43275 17.0763 6.43275ZM17.0475 15.6345C16.762 15.6345 16.5208 15.5359 16.324 15.3387C16.1272 15.1418 16.0288 14.9004 16.0288 14.6147C16.0288 14.3292 16.1273 14.0881 16.3245 13.8913C16.5217 13.6946 16.763 13.5962 17.0485 13.5962C17.3342 13.5962 17.5753 13.6948 17.772 13.892C17.9688 14.089 18.0673 14.3303 18.0673 14.616C18.0673 14.9015 17.9687 15.1427 17.7715 15.3395C17.5743 15.5362 17.333 15.6345 17.0475 15.6345ZM18.4803 11.0192C18.1948 11.0192 17.9536 10.9207 17.7568 10.7235C17.5599 10.5263 17.4615 10.285 17.4615 9.9995C17.4615 9.714 17.5601 9.47283 17.7572 9.276C17.9544 9.07917 18.1958 8.98075 18.4813 8.98075C18.7668 8.98075 19.0079 9.07933 19.2048 9.2765C19.4016 9.47367 19.5 9.715 19.5 10.0005C19.5 10.286 19.4014 10.5272 19.2043 10.724C19.0071 10.9208 18.7658 11.0192 18.4803 11.0192ZM10 19.5C8.68717 19.5 7.45267 19.2507 6.2965 18.752C5.14033 18.2533 4.13467 17.5766 3.2795 16.7218C2.42433 15.8669 1.74725 14.8617 1.24825 13.706C0.749417 12.5503 0.5 11.3156 0.5 10.0017C0.5 8.68775 0.749417 7.45267 1.24825 6.2965C1.74692 5.14033 2.42375 4.13467 3.27875 3.2795C4.13375 2.42433 5.13917 1.74725 6.295 1.24825C7.45083 0.749417 8.68583 0.5 10 0.5V2C7.76667 2 5.875 2.775 4.325 4.325C2.775 5.875 2 7.76667 2 10C2 12.2333 2.775 14.125 4.325 15.675C5.875 17.225 7.76667 18 10 18V19.5ZM10 11.75C9.51417 11.75 9.101 11.5798 8.7605 11.2395C8.42017 10.899 8.25 10.4858 8.25 10C8.25 9.8975 8.25742 9.79717 8.27225 9.699C8.28692 9.601 8.31733 9.50708 8.3635 9.41725L6.35575 7.4L7.4 6.35575L9.41725 8.3635C9.49042 8.334 9.68467 8.29617 10 8.25C10.4858 8.25 10.899 8.42017 11.2395 8.7605C11.5798 9.101 11.75 9.51417 11.75 10C11.75 10.4858 11.5798 10.899 11.2395 11.2395C10.899 11.5798 10.4858 11.75 10 11.75Z" />
</svg>