<svg width="20" height="20" viewBox="0 0 20 20" fill="none" xmlns="http://www.w3.org/2000/svg">
<path d="M11.4561 17.0356H17.4999" stroke="black" stroke-width="1.5" stroke-linecap="round" stroke-linejoin="round"/>
<path d="M11.4561 17.0356H17.4999" stroke="url(#paint0_linear_632_1866)" stroke-width="1.5" stroke-linecap="round" stroke-linejoin="round"/>
<path fill-rule="evenodd" clip-rule="evenodd" d="M10.65 3.16233C11.2964 2.38982 12.4583 2.27655 13.2469 2.90978C13.2905 2.94413 14.6912 4.03232 14.6912 4.03232C15.5575 4.55599 15.8266 5.66925 15.2912 6.51882C15.2627 6.56432 7.34329 16.4704 7.34329 16.4704C7.07981 16.7991 6.67986 16.9931 6.25242 16.9978L3.21961 17.0358L2.53628 14.1436C2.44055 13.7369 2.53628 13.3098 2.79975 12.9811L10.65 3.16233Z" stroke="black" stroke-width="1.5" stroke-linecap="round" stroke-linejoin="round"/>
<path fill-rule="evenodd" clip-rule="evenodd" d="M10.65 3.16233C11.2964 2.38982 12.4583 2.27655 13.2469 2.90978C13.2905 2.94413 14.6912 4.03232 14.6912 4.03232C15.5575 4.55599 15.8266 5.66925 15.2912 6.51882C15.2627 6.56432 7.34329 16.4704 7.34329 16.4704C7.07981 16.7991 6.67986 16.9931 6.25242 16.9978L3.21961 17.0358L2.53628 14.1436C2.44055 13.7369 2.53628 13.3098 2.79975 12.9811L10.65 3.16233Z" stroke="url(#paint1_linear_632_1866)" stroke-width="1.5" stroke-linecap="round" stroke-linejoin="round"/>
<path d="M9.18408 5.00098L13.7276 8.49025" stroke="black" stroke-width="1.5" stroke-linecap="round" stroke-linejoin="round"/>
<path d="M9.18408 5.00098L13.7276 8.49025" stroke="url(#paint2_linear_632_1866)" stroke-width="1.5" stroke-linecap="round" stroke-linejoin="round"/>
<defs>
<linearGradient id="paint0_linear_632_1866" x1="11.4561" y1="17.0356" x2="17.4985" y2="17.4561" gradientUnits="userSpaceOnUse">
<stop stop-color="#7B38DA"/>
<stop offset="1" stop-color="#5C06D4"/>
</linearGradient>
<linearGradient id="paint1_linear_632_1866" x1="2.5" y1="2.5" x2="15.6254" y2="2.63584" gradientUnits="userSpaceOnUse">
<stop stop-color="#7B38DA"/>
<stop offset="1" stop-color="#5C06D4"/>
</linearGradient>
<linearGradient id="paint2_linear_632_1866" x1="9.18408" y1="5.00098" x2="13.7475" y2="5.06939" gradientUnits="userSpaceOnUse">
<stop stop-color="#7B38DA"/>
<stop offset="1" stop-color="#5C06D4"/>
</linearGradient>
</defs>
</svg>
