<svg width="20" height="20" viewBox="0 0 20 20" fill="none" xmlns="http://www.w3.org/2000/svg">
<path fill-rule="evenodd" clip-rule="evenodd" d="M9.98712 12.7886C6.7641 12.7886 4.01172 13.2759 4.01172 15.2275C4.01172 17.179 6.74664 17.6838 9.98712 17.6838C13.2101 17.6838 15.9617 17.1957 15.9617 15.2449C15.9617 13.2941 13.2276 12.7886 9.98712 12.7886Z" stroke="url(#paint0_linear_632_1931)" stroke-width="1.5" stroke-linecap="round" stroke-linejoin="round"/>
<path fill-rule="evenodd" clip-rule="evenodd" d="M9.98743 10.0047C12.1025 10.0047 13.8168 8.28966 13.8168 6.17458C13.8168 4.0595 12.1025 2.34521 9.98743 2.34521C7.87235 2.34521 6.15725 4.0595 6.15725 6.17458C6.15013 8.28252 7.8533 9.9976 9.96045 10.0047H9.98743Z" stroke="url(#paint1_linear_632_1931)" stroke-width="1.42857" stroke-linecap="round" stroke-linejoin="round"/>
<defs>
<linearGradient id="paint0_linear_632_1931" x1="4.01172" y1="12.7886" x2="16.0073" y2="13.1257" gradientUnits="userSpaceOnUse">
<stop stop-color="#7B38DA"/>
<stop offset="1" stop-color="#5C06D4"/>
</linearGradient>
<linearGradient id="paint1_linear_632_1931" x1="6.15723" y1="2.34521" x2="13.8511" y2="2.43379" gradientUnits="userSpaceOnUse">
<stop stop-color="#7B38DA"/>
<stop offset="1" stop-color="#5C06D4"/>
</linearGradient>
</defs>
</svg>
